<svg xmlns="http://www.w3.org/2000/svg" width="128" height="32" viewBox="0 0 128 32" fill="none">
  <path d="M13.9799 2.39016V11.9806C13.5629 12.0791 13.1704 12.2408 12.8129 12.4551L6.89588 6.53805C6.82645 6.46862 6.82645 6.35606 6.89588 6.28663L11.7259 1.45652C12.5577 0.624721 13.9799 1.21383 13.9799 2.39016Z" fill="#64C8BC"/>
  <path d="M15.8864 11.9805C16.3035 12.079 16.6961 12.2407 17.0536 12.455L22.9705 6.53805C23.0399 6.46862 23.0399 6.35606 22.9705 6.28663L18.1405 1.45652C17.3087 0.624721 15.8864 1.21383 15.8864 2.39016V11.9805Z" fill="#64C8BC"/>
  <path d="M18.9533 15.0473C18.846 14.5928 18.6635 14.1674 18.4198 13.7847L24.3185 7.88608C24.3879 7.81665 24.5005 7.81665 24.5699 7.88608L29.477 12.7933C30.3088 13.6251 29.7197 15.0473 28.5433 15.0473H18.9533Z" fill="#64C8BC"/>
  <path d="M18.9533 16.9537C18.846 17.4081 18.6635 17.8336 18.4198 18.2162L24.3185 24.1149C24.3879 24.1843 24.5005 24.1843 24.5699 24.1149L29.477 19.2077C30.3088 18.3759 29.7197 16.9537 28.5433 16.9537H18.9533Z" fill="#64C8BC"/>
  <path d="M15.8864 20.0205C16.3035 19.922 16.6961 19.7603 17.0536 19.546L22.9705 25.4629C23.0399 25.5323 23.0399 25.6449 22.9705 25.7143L18.1405 30.5444C17.3087 31.3762 15.8864 30.7871 15.8864 29.6108V20.0205Z" fill="#64C8BC"/>
  <path d="M13.9799 20.0204C13.5629 19.9219 13.1704 19.7601 12.8129 19.5459L6.89588 25.4629C6.82645 25.5323 6.82645 25.6449 6.89588 25.7143L11.7259 30.5444C12.5577 31.3762 13.9799 30.7871 13.9799 29.6108V20.0204Z" fill="#64C8BC"/>
  <path d="M10.9134 16.9537C11.0207 17.4081 11.2031 17.8334 11.4467 18.216L5.54788 24.1149C5.47845 24.1843 5.36589 24.1843 5.29646 24.1149L0.389368 19.2077C-0.442411 18.3759 0.146699 16.9537 1.32302 16.9537H10.9134Z" fill="#64C8BC"/>
  <path d="M10.9134 15.0473C11.0207 14.5929 11.2031 14.1675 11.4467 13.7849L5.54788 7.88608C5.47845 7.81665 5.36589 7.81665 5.29646 7.88608L0.389368 12.7933C-0.442411 13.6251 0.146699 15.0473 1.32302 15.0473H10.9134Z" fill="#64C8BC"/>
  <path fill-rule="evenodd" clip-rule="evenodd" d="M17.7929 16.0005C17.7929 17.5798 16.5126 18.8601 14.9333 18.8601C13.354 18.8601 12.0738 17.5798 12.0738 16.0005C12.0738 14.4212 13.354 13.1409 14.9333 13.1409C16.5126 13.1409 17.7929 14.4212 17.7929 16.0005ZM16.522 16.0005C16.522 16.8778 15.8107 17.5891 14.9333 17.5891C14.0559 17.5891 13.3447 16.8778 13.3447 16.0005C13.3447 15.1231 14.0559 14.4118 14.9333 14.4118C15.8107 14.4118 16.522 15.1231 16.522 16.0005Z" fill="#64C8BC"/>
  <path d="M37.7597 21.8387L42.581 7.50269H45.525L50.3463 21.8387L50.0903 22.2227H48.6183L47.4023 18.5107H40.7037L39.4877 22.2227H38.0157L37.7597 21.8387ZM41.237 16.8894H46.869L44.309 9.12403H43.797L41.237 16.8894Z" fill="#fff"/>
  <path d="M52.3918 19.0227V11.1294H54.0985V19.236C54.0985 20.2316 54.5963 20.7294 55.5918 20.7294H59.8585V11.1294H61.5652V22.2227H55.5918C53.4585 22.2227 52.3918 21.156 52.3918 19.0227Z" fill="#fff"/>
  <path d="M64.8918 19.0227V7.50269H66.5985V11.1294H70.6518V12.6227H66.5985V19.236C66.5985 20.2316 67.0963 20.7294 68.0918 20.7294H70.8652V21.5827L70.0118 22.2227H68.0918C65.9585 22.2227 64.8918 21.156 64.8918 19.0227Z" fill="#fff"/>
  <path d="M75.9553 22.2227C73.8078 22.2227 72.734 21.1489 72.734 19.0014C72.734 16.8538 73.8078 15.78 75.9553 15.78H79.8593V14.116C79.8593 13.1205 79.3615 12.6227 78.366 12.6227H73.8007V11.7694L74.654 11.1294H78.366C80.4993 11.1294 81.566 12.196 81.566 14.3294V22.2227H75.9553ZM74.4407 19.236C74.4407 20.2316 74.9384 20.7294 75.934 20.7294H79.8593V17.1667H75.934C74.9384 17.1667 74.4407 17.6645 74.4407 18.66V19.236Z" fill="#fff"/>
  <path d="M84.8938 22.2227V11.1294H90.8671C93.0005 11.1294 94.0672 12.196 94.0672 14.3294V22.2227H92.3605V14.116C92.3605 13.1205 91.8627 12.6227 90.8671 12.6227H86.6005V22.2227H84.8938Z" fill="#fff"/>
  <path d="M100.018 22.2227C97.8703 22.2227 96.7965 21.1489 96.7965 19.0014C96.7965 16.8538 97.8703 15.78 100.018 15.78H103.922V14.116C103.922 13.1205 103.424 12.6227 102.428 12.6227H97.8632V11.7694L98.7165 11.1294H102.428C104.562 11.1294 105.628 12.196 105.628 14.3294V22.2227H100.018ZM98.5032 19.236C98.5032 20.2316 99.0009 20.7294 99.9965 20.7294H103.922V17.1667H99.9965C99.0009 17.1667 98.5032 17.6645 98.5032 18.66V19.236Z" fill="#fff"/>
  <path d="M108.871 19.0227V7.50269H110.578V11.1294H114.631V12.6227H110.578V19.236C110.578 20.2316 111.075 20.7294 112.071 20.7294H114.844V21.5827L113.991 22.2227H112.071C109.938 22.2227 108.871 21.156 108.871 19.0227Z" fill="#fff"/>
  <path d="M117.14 19.0227V14.3294C117.14 12.196 118.206 11.1294 120.34 11.1294H123.113C125.246 11.1294 126.313 12.196 126.313 14.3294V17.3374H118.846V19.236C118.846 20.2316 119.344 20.7294 120.34 20.7294H125.886V21.5827L125.033 22.2227H120.34C118.206 22.2227 117.14 21.156 117.14 19.0227ZM118.846 15.9507H124.606V14.116C124.606 13.1205 124.109 12.6227 123.113 12.6227H120.34C119.344 12.6227 118.846 13.1205 118.846 14.116V15.9507Z" fill="#fff"/>
</svg>