<svg xmlns="http://www.w3.org/2000/svg" width="206" height="49" viewBox="0 0 206 49" fill="none">
<path fill-rule="evenodd" clip-rule="evenodd" d="M6.17438 42.347L6.3072 42.2544C6.327 42.2806 6.34672 42.3067 6.36639 42.3328C6.42506 42.4106 6.48325 42.4878 6.54158 42.5625L6.5498 42.573L6.55409 42.5856C6.55996 42.6027 6.55992 42.6167 6.55991 42.6227C6.5599 42.623 6.5599 42.6232 6.5599 42.6235V42.8605L6.4132 42.6716C6.33051 42.5651 6.25137 42.4557 6.17438 42.347Z" fill="black"/>
<path d="M11.8156 25.1393C11.8188 25.2365 11.8188 25.3336 11.8156 25.4324C11.7796 27.2229 11.0106 28.98 9.5853 30.2512C9.5853 30.2527 9.5853 30.2527 9.58367 30.2543C9.39591 30.4248 9.19508 30.5841 8.98283 30.7338C8.92406 30.7752 8.81467 30.8437 8.66936 30.9377C8.54527 31.0158 8.39507 31.1129 8.222 31.2308C8.21874 31.2324 8.2171 31.234 8.21384 31.2372C7.44647 31.8362 6.16154 32.9337 5.96888 33.1058C5.95255 33.1201 5.94439 33.1297 5.94439 33.1297C5.94276 33.1313 5.94276 33.1312 5.94113 33.1328C5.91827 33.1551 5.89704 33.1774 5.87419 33.2013C4.13047 35.0221 2.38022 37.8958 2.71819 42.0264C2.63818 41.9245 2.55981 41.8209 2.48308 41.7174C0.145059 38.4343 -0.503121 34.4805 0.375269 30.8581C0.378534 30.8453 0.381804 30.8342 0.385069 30.823C0.417723 30.6972 0.448742 30.5697 0.484661 30.4455C0.489559 30.4264 0.494459 30.4073 0.500989 30.3881C1.21937 27.8378 3.03983 25.7446 5.4056 24.4543C5.62602 24.3348 5.84153 24.201 6.05052 24.0529C6.9436 23.4173 7.61463 22.5985 8.04893 21.6873C8.36078 21.0374 8.55017 20.3365 8.61548 19.6228C9.18039 19.9733 9.70285 20.4081 10.1567 20.9275C10.2743 21.0597 10.387 21.1998 10.4947 21.3448C10.831 21.7956 11.1037 22.2735 11.3062 22.7705C11.3111 22.7801 11.316 22.7896 11.3192 22.7992C11.3241 22.8104 11.329 22.8215 11.3339 22.8327C11.618 23.532 11.7747 24.2632 11.809 24.9943C11.8107 24.9959 11.8107 24.9959 11.809 24.9975C11.8123 25.0437 11.8139 25.0915 11.8156 25.1393Z" fill="#786DC2"/>
<path d="M25.1531 24.0141H25.0894C23.3881 24.0141 21.7766 23.6525 20.3235 23.0074C19.9252 22.8306 19.5382 22.6314 19.1676 22.4116C19.068 22.3543 18.9717 22.2937 18.8737 22.2332C15.6671 20.2165 13.7911 16.6944 13.7911 12.9732V1.16606C15.3291 0.418954 17.0614 0 18.8966 0C19.3799 0 19.8566 0.0302679 20.3235 0.0860222V14.6793C20.3219 14.7414 20.3219 14.8051 20.3219 14.8673C20.3219 14.9007 20.3219 14.9358 20.3235 14.9692C20.3464 17.5307 21.2525 19.8883 22.7563 21.7633C23.1644 22.273 23.6167 22.7477 24.1081 23.1794C24.42 23.4566 24.7481 23.7147 25.0894 23.9552C25.1106 23.9743 25.1335 23.9934 25.1531 24.0141Z" fill="#9A8DE5"/>
<path d="M35.1157 31.4173C35.1157 41.1281 27.047 49.0006 17.0924 49.0006C11.2229 49.0006 6.0097 46.2638 2.71982 42.0265C2.38185 37.8959 4.1321 35.0222 5.87582 33.2014C5.89867 33.1775 5.9199 33.1552 5.94276 33.1329C5.94439 33.1313 5.94439 33.1313 5.94603 33.1297C6.39502 38.917 11.3486 43.4745 17.3928 43.4745C23.7342 43.4745 28.8756 38.4598 28.8756 32.2711C28.8756 31.8761 28.8544 31.4858 28.8135 31.1003C28.5164 28.3046 27.1661 25.8148 25.1547 24.0147C25.1334 23.994 25.1122 23.9765 25.091 23.9574C24.7498 23.7184 24.4216 23.4588 24.1097 23.1816C23.6183 22.7483 23.1677 22.2736 22.7579 21.7654C21.2542 19.8905 20.348 17.5329 20.3252 14.9714V14.6799C20.3284 14.4919 20.3366 14.3055 20.3496 14.1191C23.3179 14.6464 26.0314 15.8842 28.3009 17.6444C29.7736 18.785 31.0585 20.1486 32.105 21.681C32.9753 22.9554 33.679 24.3492 34.1867 25.8307C34.7647 27.5081 35.088 29.3002 35.1141 31.1608C35.1157 31.2468 35.1157 31.3313 35.1157 31.4173Z" fill="#574FA0"/>
<path d="M71.835 22.3707V14.7084C71.7974 12.8765 70.3019 11.4189 68.4259 11.4189H63.4462V37.5836H68.4259C70.3035 37.5836 71.7974 36.126 71.835 34.2941V26.6319C71.835 26.6319 71.8725 24.9879 70.2643 24.5021C71.8725 24.0146 71.835 22.3707 71.835 22.3707ZM69.0757 33.547C69.0757 34.5569 68.3867 34.9297 67.6585 34.9297H66.1646V25.735H67.6585C68.3867 25.735 69.0757 26.0712 69.0757 27.2308V33.547ZM69.0757 21.7351C69.0757 22.9314 68.3867 23.2675 67.6585 23.2675H66.1646V14.1095H67.6585C68.3867 14.1095 69.0757 14.4838 69.0757 15.4556V21.7351Z" fill="#fff"/>
<path d="M90.1081 11.418H88.6142L84.5536 37.5826H87.5807L88.2729 32.4166H91.7163L92.4086 37.5826H95.4356L91.5661 12.8373C91.4502 12.1284 91.2575 11.418 90.1081 11.418ZM88.6664 29.4807L89.9938 19.566L91.3212 29.4807H88.6664Z" fill="#fff"/>
<path d="M112.904 12.3148L111.142 22.2199L109.38 12.3148C109.266 11.4546 108.575 11.418 108.499 11.418H106.468L109.762 26.7058V36.7989C109.802 37.2481 110.146 37.5842 110.567 37.5842H112.522V26.7074L115.816 11.4196H113.785C113.709 11.418 113.02 11.4562 112.904 12.3148Z" fill="#fff"/>
<path d="M132.903 20.9865C132.903 20.9865 131.716 19.0048 131.716 17.4724V14.9682C131.716 14.1463 132.367 13.5107 133.172 13.5107C133.977 13.5107 134.628 14.1463 134.628 14.9682V17.9965C135.357 17.697 136.429 17.2112 136.66 17.0997C137.004 16.9133 137.425 16.5007 137.425 15.6421V14.6321C137.425 12.8384 135.931 11.1929 134.093 11.1562H132.365C130.45 11.1562 128.917 12.8002 128.917 14.6321V17.3243C128.917 17.3243 128.803 19.0813 130.143 21.474L133.438 27.4922C133.438 27.4922 134.625 29.5105 134.625 31.043V34.033C134.625 34.855 133.974 35.4906 133.169 35.4906C132.364 35.4906 131.712 34.855 131.712 34.0696V29.5089C131.023 29.8084 129.912 30.2943 129.681 30.3692C129.337 30.5555 128.916 30.9665 128.916 31.8267V34.5173C128.953 36.311 130.41 37.7685 132.248 37.8434H133.972C135.887 37.8434 137.42 36.3476 137.42 34.5173V31.1911C137.42 31.1911 137.535 29.4341 136.194 27.0414L132.903 20.9865Z" fill="#fff"/>
<path d="M155.62 11.418H154.126L150.066 37.5826H153.093L153.785 32.4166H157.228L157.92 37.5826H160.947L157.078 12.8373C156.962 12.1284 156.769 11.418 155.62 11.418ZM154.178 29.4807L155.506 19.566L156.833 29.4807H154.178Z" fill="#fff"/>
<path d="M181.75 22.7823V14.7075C181.75 12.8755 180.217 11.418 178.378 11.418H173.359V37.5826H176.117V26.3314H177.573C178.301 26.3314 178.99 26.7424 178.99 28.0136V37.5826H181.748V27.5644C181.748 27.5644 181.825 25.621 180.752 25.0969C181.864 24.8372 181.75 22.7823 181.75 22.7823ZM178.99 22.2964C178.99 23.4927 178.301 23.7922 177.573 23.7922H176.117V13.9237H177.573C178.301 13.9237 178.99 14.2981 178.99 15.2698V22.2964Z" fill="#fff"/>
<path d="M195.043 11.418C194.583 11.418 194.201 11.7923 194.201 12.2399V14.0719H198.07V37.0235C198.07 37.2099 198.184 37.5842 198.836 37.5842H200.79V14.7075C200.828 14.3713 201.097 14.0719 201.479 14.0719H203.624C204.506 14.0719 204.927 13.6975 205.081 13.3614L206 11.418H195.043Z" fill="#fff"/>
</svg>