<svg xmlns="http://www.w3.org/2000/svg" width="105" height="50" viewBox="0 0 105 50" fill="none">
<path d="M87.776 4.62832C87.3822 4.49659 86.9545 4.69382 86.7981 5.07845L85.8156 7.49452C85.6469 7.90938 85.8575 8.38126 86.279 8.53264L90.8426 10.1718C91.3298 10.3468 91.5187 10.9362 91.2239 11.3617L88.1842 15.75C87.9433 16.0977 88.02 16.5736 88.358 16.828L90.4889 18.432C90.8394 18.6958 91.3372 18.623 91.5958 18.2686C92.8552 16.5424 96.2675 11.8361 97.1222 10.3533C98.1762 8.52495 97.8045 8.18902 96.2014 7.54469C94.9021 7.02068 89.6807 5.26553 87.776 4.62832Z" fill="#1272E4"/>
<path d="M94.1322 0C93.6972 0 93.3445 0.351695 93.3445 0.786752C93.3445 1.61569 93.3445 2.82256 93.3445 3.60814C93.3445 4.0432 93.6972 4.39465 94.1322 4.39465H96.7117C97.1468 4.39465 97.4994 4.04196 97.4994 3.60691V0.787741C97.4994 0.352683 97.1468 0 96.7117 0H94.1322Z" fill="#1272E4"/>
<path d="M100.05 5.97932C99.6687 6.13544 99.4722 6.55871 99.5989 6.95055L100.325 9.19694C100.459 9.61063 100.902 9.83776 101.316 9.70444L104.454 8.69352C104.866 8.56065 105.094 8.11971 104.963 7.70656L104.175 5.21092C104.037 4.77149 103.552 4.54446 103.126 4.71916L100.05 5.97932Z" fill="#1272E4"/>
<path d="M97.3135 14.5746C97.0808 14.8541 97.0696 15.2564 97.2864 15.5483L99.3161 18.2819C99.573 18.6278 100.06 18.7032 100.41 18.451L102.52 16.9281C102.87 16.6753 102.951 16.1875 102.702 15.8347L100.338 12.4907C100.039 12.0679 99.4209 12.0435 99.0897 12.4414L97.3135 14.5746Z" fill="#1272E4"/>
<path d="M0 30.2909C0 27.9934 0.481036 25.9184 1.44311 24.0659C2.40518 22.1992 3.74777 20.7416 5.47088 19.6934C7.20835 18.6307 9.15403 18.0994 11.3079 18.0994C14.8547 18.0994 17.6045 19.2051 19.5573 21.4165C21.5245 23.6136 22.5082 26.6148 22.5082 30.4202C22.5082 31.0089 22.4938 31.4469 22.4651 31.7341H6.22474C6.29654 33.285 6.89245 34.5558 8.01247 35.5467C9.1325 36.5375 10.5397 37.0329 12.2341 37.0329C13.6126 37.0329 14.7685 36.7385 15.7019 36.1498C16.6496 35.5467 17.3604 34.9005 17.8342 34.2112L21.8405 37.2483C21.6394 37.6217 21.3738 38.0094 21.0435 38.4115C20.7132 38.8135 20.2538 39.2587 19.665 39.7469C19.0907 40.2208 18.4588 40.6444 17.7696 41.0178C17.0804 41.3911 16.2403 41.6999 15.2495 41.944C14.2588 42.2025 13.2177 42.3317 12.1264 42.3317C9.69969 42.3317 7.56016 41.8147 5.70781 40.7808C3.86982 39.7326 2.45544 38.3038 1.46465 36.4944C0.488215 34.6707 0 32.6029 0 30.2909ZM6.39705 27.7708H16.3265C16.2691 26.3635 15.7808 25.2363 14.8618 24.389C13.9429 23.5275 12.7869 23.0967 11.3941 23.0967C10.0012 23.0967 8.85249 23.5346 7.94786 24.4106C7.04322 25.2865 6.52629 26.4066 6.39705 27.7708Z" fill="white"/>
<path d="M25.8898 41.7501V9.84968H31.9637V28.3739L39.3731 18.681H46.2225L38.1023 29.1278L46.8256 41.7501H39.6962L31.9637 29.8386V41.7501H25.8898Z" fill="white"/>
<path d="M49.841 15.6223C49.1661 14.9474 48.8287 14.1146 48.8287 13.1237C48.8287 12.1329 49.1661 11.3072 49.841 10.6466C50.5303 9.97173 51.3703 9.63428 52.3611 9.63428C53.3806 9.63428 54.2278 9.97173 54.9027 10.6466C55.5919 11.3072 55.9365 12.1329 55.9365 13.1237C55.9365 14.1146 55.5919 14.9474 54.9027 15.6223C54.2278 16.2829 53.3806 16.6132 52.3611 16.6132C51.3703 16.6132 50.5303 16.2829 49.841 15.6223ZM49.3672 41.7501V18.681H55.4411V41.7501H49.3672Z" fill="white"/>
<path d="M60.2659 49.9999V18.681H65.9952V21.115C66.1962 20.8565 66.4619 20.5837 66.7921 20.2965C67.1368 20.0093 67.5891 19.6862 68.1491 19.3272C68.7091 18.9682 69.3984 18.6738 70.2168 18.4441C71.0353 18.2143 71.904 18.0994 72.823 18.0994C76.1257 18.0994 78.8324 19.2339 80.9432 21.5027C83.0684 23.7572 84.131 26.6507 84.131 30.1833C84.131 33.7876 83.1258 36.717 81.1155 38.9715C79.1196 41.2116 76.4775 42.3317 73.1892 42.3317C72.2702 42.3317 71.3943 42.2168 70.5615 41.9871C69.7286 41.7573 69.0322 41.4701 68.4722 41.1255C67.9122 40.7665 67.4599 40.4434 67.1152 40.1562C66.785 39.869 66.5265 39.6033 66.3398 39.3592V49.9999H60.2659ZM66.1675 30.1402C66.1675 32.2511 66.7204 33.9168 67.826 35.1374C68.9317 36.3436 70.3461 36.9468 72.0692 36.9468C73.8354 36.9468 75.2641 36.3149 76.3554 35.0512C77.4467 33.7876 77.9924 32.1506 77.9924 30.1402C77.9924 28.1154 77.4395 26.4999 76.3339 25.2937C75.2426 24.0875 73.821 23.4844 72.0692 23.4844C70.2743 23.4844 68.8383 24.1234 67.7614 25.4014C66.6988 26.6651 66.1675 28.2447 66.1675 30.1402Z" fill="white"/>
</svg>